<?xml version="1.0" standalone="no"?><!DOCTYPE svg PUBLIC "-//W3C//DTD SVG 1.1//EN" "http://www.w3.org/Graphics/SVG/1.1/DTD/svg11.dtd"><svg class="icon" width="200px" height="200.00px" viewBox="0 0 1024 1024" version="1.1" xmlns="http://www.w3.org/2000/svg"><path fill="#333333" d="M910.03869 549.408893c0 219.636087-178.209174 397.699959-398.039129 397.699959-219.813766 0-398.02294-178.063873-398.02294-397.699959-0.080745 0 0 0 0 0s-0.419915-98.56897 28.393349-184.701772c0 0 34.175229 38.180713 64.022193 56.641197 0 0-18.056758-147.102465 108.43708-256.12115 0 0 10.998743 50.084043 50.633071 61.567257 0 0 39.052922-163.479561 248.820899-148.992183 0 0-12.500725 165.466014 128.157509 215.485301 0 0 17.636842-27.391828 30.799718-78.800173C773.240439 214.487569 912.105888 330.580259 910.03869 549.408893z" /></svg>